<svg xmlns="http://www.w3.org/2000/svg" xmlns:xlink="http://www.w3.org/1999/xlink" width="113" height="113" viewBox="0 0 113 113">
  <defs>
    <filter id="Rectangle_410989" x="0" y="0" width="113" height="113" filterUnits="userSpaceOnUse">
      <feOffset dy="3" input="SourceAlpha"/>
      <feGaussianBlur stdDeviation="3" result="blur"/>
      <feFlood flood-opacity="0.161"/>
      <feComposite operator="in" in2="blur"/>
      <feComposite in="SourceGraphic"/>
    </filter>
    <clipPath id="clip-path">
      <rect id="Rectangle_425877" data-name="Rectangle 425877" width="60.595" height="60.493" transform="translate(0 0)" fill="none"/>
    </clipPath>
  </defs>
  <g id="Group_1229746" data-name="Group 1229746" transform="translate(-796.781 -1964.087)">
    <g transform="matrix(1, 0, 0, 1, 796.78, 1964.09)" filter="url(#Rectangle_410989)">
      <g id="Rectangle_410989-2" data-name="Rectangle 410989" transform="translate(9 6)" fill="#d1dfbb" stroke="#627a3c" stroke-width="2">
        <rect width="95" height="95" rx="18" stroke="none"/>
        <rect x="1" y="1" width="93" height="93" rx="17" fill="none"/>
      </g>
    </g>
    <g id="Group_1229748" data-name="Group 1229748" transform="translate(822.984 1987.34)">
      <g id="Group_1229735" data-name="Group 1229735" clip-path="url(#clip-path)">
        <path id="Path_1491801" data-name="Path 1491801" d="M15.124,59.283H6.251V46.68H1.21V27.726A13.942,13.942,0,0,1,15.124,13.812,13.77,13.77,0,0,1,28.936,27.625V46.58H23.9v12.6H15.124Zm1.311-25.205h-2.52V36.6h2.52Zm0-5.042h-2.52v2.521h2.52Zm0-5.041h-2.52v2.52h2.52Z" fill="#65b2fe"/>
        <path id="Path_1491802" data-name="Path 1491802" d="M15.124,1.311A6.352,6.352,0,1,1,8.772,7.663a6.326,6.326,0,0,1,6.352-6.352" fill="#ffd8a8"/>
        <rect id="Rectangle_425871" data-name="Rectangle 425871" width="10.082" height="10.082" transform="translate(35.288 44.16)" fill="#80af52"/>
        <rect id="Rectangle_425872" data-name="Rectangle 425872" width="10.082" height="10.082" transform="translate(35.288 25.205)" fill="#a5c63b"/>
        <rect id="Rectangle_425873" data-name="Rectangle 425873" width="10.082" height="10.082" transform="translate(35.288 6.352)" fill="#6e8c61"/>
        <rect id="Rectangle_425874" data-name="Rectangle 425874" width="2.52" height="2.521" transform="translate(13.914 34.078)"/>
        <rect id="Rectangle_425875" data-name="Rectangle 425875" width="2.52" height="2.521" transform="translate(13.914 29.036)"/>
        <rect id="Rectangle_425876" data-name="Rectangle 425876" width="2.52" height="2.52" transform="translate(13.914 23.995)"/>
        <path id="Path_1491803" data-name="Path 1491803" d="M24,60.493a1.335,1.335,0,0,1-1.311-1.311v-25.2a1.311,1.311,0,1,1,2.621,0v25.2A1.5,1.5,0,0,1,24,60.493"/>
        <path id="Path_1491804" data-name="Path 1491804" d="M6.352,60.493a1.333,1.333,0,0,1-1.309-1.311v-25.2a1.31,1.31,0,1,1,2.62,0v25.2a1.5,1.5,0,0,1-1.311,1.311"/>
        <path id="Path_1491805" data-name="Path 1491805" d="M15.124,60.493a1.334,1.334,0,0,1-1.31-1.311V41.639a1.31,1.31,0,0,1,2.621,0V59.283a1.321,1.321,0,0,1-1.311,1.21"/>
        <path id="Path_1491806" data-name="Path 1491806" d="M29.037,47.891H24a1.31,1.31,0,1,1,0-2.621h3.73V27.726A12.269,12.269,0,0,0,24,18.854a12.44,12.44,0,0,0-8.872-3.73,12.607,12.607,0,0,0-12.6,12.6V45.37H6.352a1.311,1.311,0,1,1,0,2.621H1.311A1.334,1.334,0,0,1,0,46.681V27.726a15.124,15.124,0,0,1,30.247,0V46.681a1.3,1.3,0,0,1-1.21,1.21"/>
        <path id="Path_1491807" data-name="Path 1491807" d="M15.124,15.123A7.616,7.616,0,0,1,7.563,7.561a7.562,7.562,0,0,1,15.123,0,7.617,7.617,0,0,1-7.562,7.562m0-12.6a4.992,4.992,0,0,0-5.041,5.041,5.041,5.041,0,1,0,10.082,0A4.992,4.992,0,0,0,15.124,2.52"/>
        <path id="Path_1491808" data-name="Path 1491808" d="M59.283,60.493H1.311a1.31,1.31,0,1,1,0-2.621H59.283a1.334,1.334,0,0,1,1.311,1.31,1.5,1.5,0,0,1-1.311,1.311"/>
        <path id="Path_1491809" data-name="Path 1491809" d="M45.37,55.452H35.288a1.334,1.334,0,0,1-1.31-1.311V44.059a1.333,1.333,0,0,1,1.31-1.31H45.37a1.334,1.334,0,0,1,1.311,1.31V54.141a1.335,1.335,0,0,1-1.311,1.311M36.6,52.932h7.562V45.37H36.6Z"/>
        <path id="Path_1491810" data-name="Path 1491810" d="M45.37,36.6H35.288a1.333,1.333,0,0,1-1.31-1.311V25.2a1.334,1.334,0,0,1,1.31-1.31H45.37a1.335,1.335,0,0,1,1.311,1.31V35.287A1.334,1.334,0,0,1,45.37,36.6M36.6,34.078h7.562V26.516H36.6Z"/>
        <path id="Path_1491811" data-name="Path 1491811" d="M45.37,17.644H35.288a1.334,1.334,0,0,1-1.31-1.311V6.251a1.334,1.334,0,0,1,1.31-1.311H45.37a1.335,1.335,0,0,1,1.311,1.311V16.333a1.335,1.335,0,0,1-1.311,1.311M36.6,15.123h7.562V7.561H36.6Z"/>
        <path id="Path_1491812" data-name="Path 1491812" d="M39.926,13.914a1.109,1.109,0,0,1-1.008-.6L38.112,12a1.24,1.24,0,0,1,.3-1.714,1.209,1.209,0,0,1,1.512.1l.706-1.008a1.231,1.231,0,0,1,2.017,1.411l-1.714,2.521a1.341,1.341,0,0,1-1.009.6"/>
        <path id="Path_1491813" data-name="Path 1491813" d="M39.926,32.767a1.109,1.109,0,0,1-1.008-.6l-.806-1.31a1.24,1.24,0,0,1,.3-1.714,1.209,1.209,0,0,1,1.512.1l.706-1.008a1.231,1.231,0,0,1,2.017,1.411l-1.714,2.521a1.111,1.111,0,0,1-1.009.6"/>
        <path id="Path_1491814" data-name="Path 1491814" d="M39.926,51.722a1.107,1.107,0,0,1-1.008-.6l-.806-1.311a1.24,1.24,0,0,1,.3-1.714,1.209,1.209,0,0,1,1.512.1l.706-1.009A1.231,1.231,0,1,1,42.649,48.6l-1.714,2.52a1.722,1.722,0,0,1-1.009.6"/>
        <path id="Path_1491815" data-name="Path 1491815" d="M59.283,10.082H50.411a1.311,1.311,0,1,1,0-2.621h8.872a1.334,1.334,0,0,1,1.311,1.31,1.5,1.5,0,0,1-1.311,1.311"/>
        <path id="Path_1491816" data-name="Path 1491816" d="M55.452,15.124H50.411a1.311,1.311,0,1,1,0-2.622h5.041a1.311,1.311,0,1,1,0,2.622"/>
        <path id="Path_1491817" data-name="Path 1491817" d="M59.283,29.037H50.411a1.311,1.311,0,1,1,0-2.621h8.872a1.335,1.335,0,0,1,1.311,1.31,1.5,1.5,0,0,1-1.311,1.311"/>
        <path id="Path_1491818" data-name="Path 1491818" d="M55.452,34.078H50.411a1.31,1.31,0,1,1,0-2.621h5.041a1.311,1.311,0,1,1,0,2.621"/>
        <path id="Path_1491819" data-name="Path 1491819" d="M59.283,47.891H50.411a1.31,1.31,0,1,1,0-2.621h8.872a1.334,1.334,0,0,1,1.311,1.31,1.5,1.5,0,0,1-1.311,1.311"/>
        <path id="Path_1491820" data-name="Path 1491820" d="M55.452,52.932H50.411a1.31,1.31,0,1,1,0-2.621h5.041a1.311,1.311,0,1,1,0,2.621"/>
      </g>
    </g>
  </g>
</svg>
